<svg width="14" height="14" viewBox="0 0 14 14" fill="none" xmlns="http://www.w3.org/2000/svg">
<g id="btn_more_normal">
<g id="Vector">
<path d="M8.63629 7.39959C8.72911 7.39959 8.82278 7.3606 8.89367 7.28264C9.03544 7.1267 9.03544 6.87331 8.89367 6.71737L5.62025 3.11695C5.47848 2.96102 5.2481 2.96102 5.10633 3.11695C4.96456 3.27289 4.96456 3.52628 5.10633 3.68221L8.37975 7.28264C8.45063 7.3606 8.54346 7.39959 8.63629 7.39959Z" fill="#12913E"/>
<path d="M5.36371 11C5.45654 11 5.55021 10.961 5.6211 10.883L8.89367 7.28264C9.03544 7.1267 9.03544 6.87331 8.89367 6.71737C8.7519 6.56144 8.52152 6.56144 8.37975 6.71737L5.10633 10.3178C4.96456 10.4737 4.96456 10.7271 5.10633 10.883C5.17722 10.961 5.27004 11 5.36371 11Z" fill="#12913E"/>
</g>
</g>
</svg>
