<svg xmlns="http://www.w3.org/2000/svg" viewBox="0 0 406 136"><defs><clipPath id="clip-path"><path d="M111.22 66a438.52 438.52 0 00-6.32-43.73c-.46-2.34-1.16-4.27-3.74-4.75s-4.08.9-5.42 2.84c-2.58 3.72-5.25 7.38-7.88 11.06a4 4 0 01-3.3 1.83 309.26 309.26 0 01-31.35 0 3.67 3.67 0 01-3.1-1.7c-2.65-3.76-5.41-7.45-8-11.23-1.35-1.94-3-3.27-5.44-2.79s-3.3 2.54-3.71 4.81c-2.11 11.59-4 23.2-5.33 34.91a354.59 354.59 0 00-2.21 56.52c.17 3.67 2.24 5.32 5.88 4.67A218 218 0 0165.21 115a211 211 0 0141.67 3.48c3.13.57 5.08-1 5.48-4.13.61-4.9.27-9.83.41-13.68A337.17 337.17 0 00111.22 66z" fill="none"/></clipPath></defs><path fill="#3c3c3c" d="M344.6 75.91a3 3 0 00-3.23-2.75l-2.29.2v-7.65h3.21a3 3 0 100-6h-3.21v-4.86a6.7 6.7 0 00-13.39 0v4.84h-1.75l.28-1.43a3 3 0 00-5.92-1.14l-1.78 9.22a3 3 0 002.37 3.52 2.76 2.76 0 00.57.06 3 3 0 003-2.44l.34-1.77h2.91v8.77l-6 .51a3 3 0 10.25 6h.26l5.51-.47v4.24a6.7 6.7 0 0013.39 0V79.4l2.79-.23a3 3 0 002.69-3.26zM377.13 54.23a6.7 6.7 0 00-4.91 2H361.5A6.69 6.69 0 00349.23 51l-1.66 3.23a6.68 6.68 0 0010.4 8h12.3l-.42 20.33v.24c-3.24 0-3.55.19-4.16.57a3 3 0 001.62 5.63 2.73 2.73 0 00.64-.07h6.1a6.81 6.81 0 002.36.48h.14a6.69 6.69 0 006.69-6.55l.44-21.81a6.68 6.68 0 00-6.54-6.82z"/><path fill="#3c3c3c" d="M367 67.72a3 3 0 00-4.15.9l-9.06 14.21-.15.26a3.71 3.71 0 006.56 3.46l7.8-14.89a3 3 0 00-1-3.94zM355 66.9a3 3 0 00-4.09 1.1l-6.74 12.11c-.07.12-.14.27-.2.4A3.83 3.83 0 00351 83.5l5.28-12.82A3 3 0 00355 66.9zM261.61 59.37a6.25 6.25 0 001.49.17 6.69 6.69 0 006.52-5.21l.14-.63 32.43-1.32-.11 3.43a3.9 3.9 0 107.72-.81l-1.54-6.06-.11-.44a3 3 0 00-3-2.24l-17.41.74a3 3 0 00.07-2.39l-2.43-6.19a4.25 4.25 0 00-.63-1.07 4.07 4.07 0 10-6.33 5.13l3.85 4.74-11.15.45A6.69 6.69 0 00258 45.25l-1.39 6.11a6.69 6.69 0 005 8.01z"/><path fill="#3c3c3c" d="M303.58 89.16a8.85 8.85 0 01-3.3 1.19 10.59 10.59 0 01-3.18 0 8.75 8.75 0 01-5.25-3.1c-.2-.24-.39-.48-.58-.73l12-3.19.28-.09a3.88 3.88 0 10-2.55-7.33l-12.62 4.4a19.87 19.87 0 01-.57-3.06 12 12 0 010-2.94l15.34-.11h.11a3.65 3.65 0 00-.27-7.3l-23.8.88.3-.92a6.69 6.69 0 10-12.71-4.19L265 68.3l-4.82.18a3 3 0 10.14 6H263l-4.5 13.67a6.69 6.69 0 1012.71 4.19l5.92-18h3.39a20.22 20.22 0 00.14 3.73 28.07 28.07 0 001 4.61l-2 .68a3 3 0 101.76 5.76l2.6-.69a22 22 0 002.42 3.5 17.57 17.57 0 004.15 3.59 15.73 15.73 0 005.29 2 18 18 0 005.49.11c1.78-.22 3.42-.67 5.11-1h.06a4.16 4.16 0 001.32-.51 4.08 4.08 0 10-4.2-7z"/><circle fill="#3c3c3c" cx="293.39" cy="60.5" r="5.93" transform="rotate(-45 293.391 60.503)"/><path fill="#3c3c3c" d="M152.47 52.82l24.24-.42 6.06-.1h1.75a2.93 2.93 0 01.41.07 4.07 4.07 0 011.53.65 4.52 4.52 0 011.88 2.75 8.46 8.46 0 01.11.88v1.52l.06 3a3.31 3.31 0 006.61 0v-5.58a7.64 7.64 0 00-.14-1.07 11.45 11.45 0 00-8.41-9.08 8 8 0 00-1.08-.23 9.82 9.82 0 00-1.09-.12h-1.69L176.7 45l-24.24-.43h-.14a4.15 4.15 0 00.14 8.3z"/><path fill="#3c3c3c" d="M196 74.76h-22.23l4.59-7.76a7 7 0 10-12.08-7.16l-8.83 14.92H145a3.31 3.31 0 10-.36 6.61h8.85l-2.8 4.73a7 7 0 002.43 9.6 6.92 6.92 0 003.57 1 7 7 0 006-3.44l7-11.89H196a3.31 3.31 0 10.36-6.61 2.16 2.16 0 00-.36 0z"/><path fill="#3c3c3c" d="M157 56.21a3.69 3.69 0 00-3.68 6.4l2.68 1.54a3.33 3.33 0 004-5.31l-2.25-2.12a3.82 3.82 0 00-.75-.51zM149.87 72.1l2.39.81a3.35 3.35 0 003.15-5.81l-2-1.56a3.79 3.79 0 10-4.72 5.93 3.74 3.74 0 001.16.63zM181.12 82.28c-9.67-.22-7.84 14 .91 14 9.49.01 7.58-13.82-.91-14zM244 51.29a12.19 12.19 0 00-6.93-4.2 14.15 14.15 0 00-2-.24h-4.19L220 46.66h-.11a4.37 4.37 0 00.11 8.73l10.87-.13h4.63a4 4 0 012.23 1.26 4 4 0 01.94 2.43l.07 5.41v.55a1.93 1.93 0 010 .34v.34a.57.57 0 01-.07.33 4.42 4.42 0 01-.59 1.24 4 4 0 01-2.23 1.59 4.19 4.19 0 01-.69.13h-3.88l-5.44.06-5.44.06a8.53 8.53 0 01-1.89-.09 4.35 4.35 0 01-3.24-2.84 4.73 4.73 0 01-.19-.74L215 65l-.06-.68-.25-2.71-1-10.85a3.31 3.31 0 00-6.59.53l.73 10.84.18 2.71.05.67.1.93a10.25 10.25 0 00.43 1.9A11.42 11.42 0 00216.9 76a14.77 14.77 0 003.51.34l5.44.07 5.44.06h4.4a11.28 11.28 0 002-.33 11.71 11.71 0 006.59-4.39 12.2 12.2 0 001.84-3.61l.26-1 .16-1a8.42 8.42 0 00.08-1v-.81l.06-5.47a12.06 12.06 0 00-2.68-7.57zM215.75 79.55c-9.29-.1-12 15-1.56 15 9.17.02 11.86-14.89 1.56-15zM238.37 79.55c-10.38-.1-8 15 1.25 15 10.29.02 7.87-14.91-1.25-15z"/><path fill="#fff" d="M111.22 66a438.52 438.52 0 00-6.32-43.73c-.46-2.34-1.16-4.27-3.74-4.75s-4.08.9-5.42 2.84c-2.58 3.72-5.25 7.38-7.88 11.06a4 4 0 01-3.3 1.83 309.26 309.26 0 01-31.35 0 3.67 3.67 0 01-3.1-1.7c-2.65-3.76-5.41-7.45-8-11.23-1.35-1.94-3-3.27-5.44-2.79s-3.3 2.54-3.71 4.81c-2.11 11.59-4 23.2-5.33 34.91a354.59 354.59 0 00-2.21 56.52c.17 3.67 2.24 5.32 5.88 4.67A218 218 0 0165.21 115a211 211 0 0141.67 3.48c3.13.57 5.08-1 5.48-4.13.61-4.9.27-9.83.41-13.68A337.17 337.17 0 00111.22 66z"/><path d="M108.08 120.79a8.48 8.48 0 01-1.59-.15 210.41 210.41 0 00-41.24-3.45 217.87 217.87 0 00-33.61 3.37 7.21 7.21 0 01-6-1.16 7.2 7.2 0 01-2.46-5.56A356.26 356.26 0 0125.42 57c1.14-10.16 2.79-21 5.34-35 .31-1.71 1-5.72 5.46-6.57s6.86 2.57 7.65 3.69c1.44 2.07 3 4.16 4.41 6.18l3.62 5a1.52 1.52 0 001.43.77 305.14 305.14 0 0031.14 0 1.77 1.77 0 001.61-.91c.81-1.13 1.62-2.27 2.44-3.4 1.79-2.49 3.65-5.07 5.42-7.63.78-1.13 3.16-4.57 7.62-3.75s5.13 4.62 5.44 6.44a439.61 439.61 0 016.36 43.95A336.8 336.8 0 01115 100.7v4.12a76.57 76.57 0 01-.39 9.81 7 7 0 01-2.64 5 6.35 6.35 0 01-3.89 1.16zm-39.14-8a217 217 0 0138.32 3.56 2.83 2.83 0 002-.24 3 3 0 00.89-2 75.06 75.06 0 00.36-9.24v-4.22A335.91 335.91 0 00109 66.19a437.06 437.06 0 00-6.3-43.51c-.48-2.48-1-2.83-2-3s-1.93.06-3.22 1.93c-1.8 2.6-3.67 5.2-5.47 7.71-.82 1.12-1.63 2.25-2.43 3.38a6.13 6.13 0 01-5 2.74 308 308 0 01-31.58 0 5.83 5.83 0 01-4.75-2.62c-1.18-1.67-2.41-3.36-3.59-5-1.47-2-3-4.13-4.46-6.24-1.29-1.86-2.17-2.1-3.23-1.9s-1.55.69-2 3.06c-2.54 14-4.17 24.7-5.3 34.76a350.23 350.23 0 00-2.21 56.17 3.32 3.32 0 00.82 2.35 3.4 3.4 0 002.5.28A222.72 222.72 0 0165 112.86c1.38-.06 2.64-.08 3.9-.08z"/><g clip-path="url(#clip-path)"><circle fill="#ffd101" cx="104.86" cy="32.79" r="35.95"/><circle fill="#ffd101" cx="24.22" cy="120.15" r="19.8"/><circle fill="#ffd101" cx="113.62" cy="120.15" r="19.8"/></g><path fill="#3c3c3c" d="M108.09 121.34a9.69 9.69 0 01-1.7-.16 209.29 209.29 0 00-41.13-3.44 216.71 216.71 0 00-33.52 3.36c-3.27.58-5.3-.37-6.43-1.27a7.66 7.66 0 01-2.66-6 356.46 356.46 0 012.23-56.95c1.14-10.17 2.79-21 5.35-35.09.3-1.66 1.1-6.09 5.89-7s7.36 2.72 8.2 3.92c1.43 2.07 2.94 4.15 4.4 6.17 1.2 1.65 2.43 3.35 3.63 5.05a1 1 0 001 .54 304 304 0 0031.08 0 1.25 1.25 0 001.19-.69c.81-1.13 1.63-2.26 2.44-3.4 1.8-2.49 3.65-5.07 5.42-7.62.83-1.21 3.36-4.86 8.17-4s5.57 5.1 5.92 6.91a444 444 0 016.37 44 337.94 337.94 0 011.55 35v4.07a77.59 77.59 0 01-.4 9.88 7.47 7.47 0 01-2.86 5.36 6.79 6.79 0 01-4.14 1.36zm-39.15-9.1a217.17 217.17 0 0138.42 3.56 2.41 2.41 0 001.61-.14 2.5 2.5 0 00.68-1.64 72 72 0 00.35-9.17v-4.23a334.75 334.75 0 00-1.54-34.4c-1.29-14-3.4-28.65-6.28-43.46-.47-2.38-.9-2.46-1.56-2.58s-1.42-.1-2.67 1.71c-1.8 2.6-3.67 5.19-5.48 7.71L90.08 33a6.61 6.61 0 01-5.39 3 309.18 309.18 0 01-31.64 0 6.41 6.41 0 01-5.17-2.84c-1.18-1.67-2.4-3.36-3.58-5-1.48-2-3-4.15-4.47-6.26-1.24-1.79-1.92-1.82-2.68-1.67-.6.11-1.11.21-1.55 2.62-2.53 14-4.16 24.67-5.29 34.72a350.39 350.39 0 00-2.2 56.09 2.83 2.83 0 00.61 2 2.88 2.88 0 002.06.16 222.65 222.65 0 0134.37-3.45c1.26-.12 2.52-.13 3.79-.13z"/><rect x="65.16" y="67.22" width="7.51" height="6.01" rx="2.13" fill="#ffafb2"/><path d="M50.55 56.84a3.72 3.72 0 113.71-3.73 3.72 3.72 0 01-3.71 3.73z" fill="#383939"/><path fill="#393939" d="M50.55 57.66a4.54 4.54 0 114.53-4.55 4.55 4.55 0 01-4.53 4.55zm0-7.43a2.9 2.9 0 102.89 2.91 2.89 2.89 0 00-2.89-2.91z"/><circle fill="#3c3c3c" cx="87.28" cy="53.12" r="3.71"/><path fill="#393939" d="M87.28 57.66a4.54 4.54 0 114.54-4.54 4.54 4.54 0 01-4.54 4.54zm0-7.43a2.9 2.9 0 102.9 2.9 2.9 2.9 0 00-2.9-2.9z"/><circle fill="#fff" cx="86.49" cy="51.99" r="1.62"/><circle fill="#fff" cx="49.76" cy="51.99" r="1.62"/><path fill="#393939" d="M72.94 59.26c0 1.83-2.2 3.31-4 3.31s-4-1.48-4-3.31 2.2-2.4 4-2.4 4 .58 4 2.4z"/><path fill="#393939" d="M68.92 63.12c-2.12 0-4.57-1.69-4.57-3.86s2.36-2.95 4.57-2.95 4.57.78 4.57 2.95-2.49 3.86-4.57 3.86zm0-5.72c-.58 0-3.48.09-3.48 1.86 0 1.49 1.91 2.76 3.48 2.76s3.47-1.27 3.47-2.76c0-1.77-2.89-1.86-3.47-1.86z"/><path fill="#3c3c3c" d="M74.32 70.53a7.72 7.72 0 01-5.4-2.2 7.74 7.74 0 01-13.14-5.54 1.64 1.64 0 013.28 0 4.45 4.45 0 008.4 2.06 1.64 1.64 0 012.21-.7 1.69 1.69 0 01.7.7 4.46 4.46 0 008.41-2.06 1.64 1.64 0 013.28 0 7.76 7.76 0 01-7.74 7.74z"/><path fill="#3c3c3c" d="M68.92 67.5a1.63 1.63 0 01-1.64-1.62V61a1.64 1.64 0 013.28 0v4.91a1.64 1.64 0 01-1.64 1.59z"/></svg>
