<?xml version="1.0" standalone="no"?><!DOCTYPE svg PUBLIC "-//W3C//DTD SVG 1.1//EN" "http://www.w3.org/Graphics/SVG/1.1/DTD/svg11.dtd"><svg t="1769757375059" class="icon" viewBox="0 0 1024 1024" version="1.1" xmlns="http://www.w3.org/2000/svg" p-id="9160" xmlns:xlink="http://www.w3.org/1999/xlink" width="128" height="128"><path d="M520.533333 693.333333c-55.466667 0-106.666667-17.066667-149.333333-49.066666-14.933333-10.666667-17.066667-29.866667-6.4-44.8 10.666667-14.933333 29.866667-17.066667 44.8-6.4 32 23.466667 70.4 36.266667 110.933333 36.266666 40.533333 0 78.933333-12.8 110.933334-36.266666 14.933333-10.666667 34.133333-8.533333 44.8 6.4s8.533333 34.133333-6.4 44.8c-42.666667 32-93.866667 49.066667-149.333334 49.066666z" fill="#FFBB12" p-id="9161"></path><path d="M584.533333 853.333333c-23.466667 0-42.666667-19.2-42.666666-42.666666s19.2-42.666667 42.666666-42.666667c49.066667 0 96-10.666667 140.8-29.866667 21.333333-10.666667 46.933333 0 55.466667 21.333334 10.666667 21.333333 0 46.933333-21.333333 55.466666-53.333333 25.6-113.066667 38.4-174.933334 38.4z" fill="#543E3E" p-id="9162"></path><path d="M157.866667 533.333333c-70.4-8.533333-121.6-70.4-113.066667-136.533333s74.666667-115.2 145.066667-106.666667M836.266667 302.933333c70.4-12.8 138.666667 32 151.466666 98.133334 12.8 66.133333-34.133333 130.133333-104.533333 142.933333" fill="#FFBB12" p-id="9163"></path><path d="M748.8 802.133333c-10.666667 0-19.2-4.266667-25.6-12.8-10.666667-14.933333-8.533333-34.133333 6.4-44.8C808.533333 684.8 853.333333 597.333333 853.333333 503.466667c0-170.666667-147.2-309.333333-330.666666-309.333334S192 332.8 192 503.466667c0 17.066667-14.933333 32-32 32S128 520.533333 128 503.466667C128 298.666667 302.933333 130.133333 520.533333 130.133333s394.666667 166.4 394.666667 373.333334c0 113.066667-53.333333 219.733333-149.333333 292.266666-4.266667 4.266667-10.666667 6.4-17.066667 6.4z" fill="#543E3E" p-id="9164"></path></svg>