<?xml version="1.0" standalone="no"?><!DOCTYPE svg PUBLIC "-//W3C//DTD SVG 1.1//EN" "http://www.w3.org/Graphics/SVG/1.1/DTD/svg11.dtd"><svg t="1769757315388" class="icon" viewBox="0 0 1024 1024" version="1.1" xmlns="http://www.w3.org/2000/svg" p-id="6056" xmlns:xlink="http://www.w3.org/1999/xlink" width="128" height="128"><path d="M0 0m409.6 0l204.8 0q409.6 0 409.6 409.6l0 204.8q0 409.6-409.6 409.6l-204.8 0q-409.6 0-409.6-409.6l0-204.8q0-409.6 409.6-409.6Z" fill="#FA7301" opacity=".2" p-id="6057"></path><path d="M457.17504 273.05984a63.4368 63.4368 0 0 1 109.62944 0l57.10848 98.048a12.68736 12.68736 0 0 0 8.28416 6.01088l110.87872 24.0128a63.4368 63.4368 0 0 1 33.87392 104.26368l-75.59168 84.61312a12.68736 12.68736 0 0 0-3.1744 9.728l11.42784 112.88576a63.4368 63.4368 0 0 1-88.6784 64.44032l-103.8336-45.76256a12.68736 12.68736 0 0 0-10.24 0l-103.81312 45.76256a63.4368 63.4368 0 0 1-88.6784-64.45056l11.4176-112.87552a12.68736 12.68736 0 0 0-3.16416-9.728l-75.59168-84.61312a63.4368 63.4368 0 0 1 33.88416-104.26368l110.88896-24.0128a12.68736 12.68736 0 0 0 8.28416-6.01088z m61.20448 20.97152a12.68736 12.68736 0 0 0-17.3568 4.56704l-57.09824 98.048a63.488 63.488 0 0 1-41.40032 30.06464l-110.86848 24.0128a12.68736 12.68736 0 0 0-6.78912 20.85888l75.61216 84.61312a63.488 63.488 0 0 1 15.80032 48.65024l-11.4176 112.88576a12.68736 12.68736 0 0 0 17.72544 12.88192l103.8336-45.75232a63.488 63.488 0 0 1 51.2 0l103.81312 45.75232a12.68736 12.68736 0 0 0 17.74592-12.88192l-11.47904-112.88576a63.488 63.488 0 0 1 15.81056-48.65024l75.60192-84.61312a12.68736 12.68736 0 0 0-6.77888-20.85888l-110.8992-24.00256a63.488 63.488 0 0 1-41.3184-30.06464l-57.11872-98.05824a12.68736 12.68736 0 0 0-4.57728-4.57728z m33.96608 180.35712a25.37472 25.37472 0 0 1 34.49856 37.1712l-71.77216 71.77216-1.39264 1.28a25.37472 25.37472 0 0 1-34.48832-1.28l-35.8912-35.8912-1.28-1.39264a25.37472 25.37472 0 0 1 1.28-34.48832l1.39264-1.29024a25.37472 25.37472 0 0 1 34.49856 1.29024l17.98144 17.94048 53.82144-53.83168z" fill="#FA7301" p-id="6058"></path></svg>