<svg width="160" height="160" viewBox="0 0 160 160" fill="none" xmlns="http://www.w3.org/2000/svg">
  <circle cx="80" cy="80" r="72" fill="#FFF6DD"/>
  <circle cx="80" cy="80" r="56" fill="#FFE7AE"/>
  <rect x="42" y="44" width="54" height="74" rx="20" fill="#FFFFFF" stroke="#E4E7EC" stroke-width="4"/>
  <path d="M70 67V95" stroke="#1F2937" stroke-width="6" stroke-linecap="round"/>
  <path d="M70 81H109" stroke="#B7791F" stroke-width="6" stroke-linecap="round"/>
  <path d="M98 69L112 81L98 93" stroke="#B7791F" stroke-width="6" stroke-linecap="round" stroke-linejoin="round"/>
  <circle cx="54" cy="81" r="4" fill="#D4D9E1"/>
  <path d="M114 48C117.314 48 120 45.3137 120 42C120 38.6863 117.314 36 114 36C110.686 36 108 38.6863 108 42C108 45.3137 110.686 48 114 48Z" fill="#FFC553"/>
  <path d="M126 62C128.761 62 131 59.7614 131 57C131 54.2386 128.761 52 126 52C123.239 52 121 54.2386 121 57C121 59.7614 123.239 62 126 62Z" fill="#FFD57D"/>
  <path d="M118 74C120.209 74 122 72.2091 122 70C122 67.7909 120.209 66 118 66C115.791 66 114 67.7909 114 70C114 72.2091 115.791 74 118 74Z" fill="#FFC553"/>
  <path d="M109 125C112.314 125 115 122.314 115 119C115 115.686 112.314 113 109 113C105.686 113 103 115.686 103 119C103 122.314 105.686 125 109 125Z" fill="#C78639"/>
  <path d="M121 136C123.761 136 126 133.761 126 131C126 128.239 123.761 126 121 126C118.239 126 116 128.239 116 131C116 133.761 118.239 136 121 136Z" fill="#DFA14D"/>
  <path d="M99 138C101.761 138 104 135.761 104 133C104 130.239 101.761 128 99 128C96.2386 128 94 130.239 94 133C94 135.761 96.2386 138 99 138Z" fill="#E9D09D"/>
</svg>
