<?xml version="1.0" standalone="no"?><!DOCTYPE svg PUBLIC "-//W3C//DTD SVG 1.1//EN" "http://www.w3.org/Graphics/SVG/1.1/DTD/svg11.dtd"><svg t="1769757028567" class="icon" viewBox="0 0 1024 1024" version="1.1" xmlns="http://www.w3.org/2000/svg" p-id="3017" xmlns:xlink="http://www.w3.org/1999/xlink" width="128" height="128"><path d="M714.24 343.04H38.4v458.24a77.0304 77.0304 0 0 0 76.8 76.8h675.84V419.84a77.0304 77.0304 0 0 0-76.8-76.8z" fill="#EE7C3D" p-id="3018"></path><path d="M903.68 227.84v568.32H120.32V227.84h783.36m5.12-81.92H115.2a77.0304 77.0304 0 0 0-76.8 76.8v578.56a77.0304 77.0304 0 0 0 76.8 76.8h793.6a77.0304 77.0304 0 0 0 76.8-76.8V222.72a77.0304 77.0304 0 0 0-76.8-76.8z" fill="#333333" p-id="3019"></path><path d="M369.92 382.72H120.32V227.84h249.6V145.92H115.2a77.0304 77.0304 0 0 0-76.8 76.8v165.12a77.0304 77.0304 0 0 0 76.8 76.8h254.72zM908.8 145.92h-254.72v81.92H903.68v154.88h-249.6v81.92H908.8a77.0304 77.0304 0 0 0 76.8-76.8V222.72a77.0304 77.0304 0 0 0-76.8-76.8z" fill="#333333" p-id="3020"></path><path d="M572.16 227.84v228.2496l-3.84-3.4304-54.6304-49.6384-55.04 49.152-6.8096 6.0672V227.84h120.32m81.92-81.92h-284.16v438.1696a25.6 25.6 0 0 0 25.7536 25.6 25.1392 25.1392 0 0 0 16.9216-6.5536l100.6848-89.856 97.9712 89.0624a25.1136 25.1136 0 0 0 17.0752 6.7072 25.6 25.6 0 0 0 25.7536-25.6V145.92z" fill="#333333" p-id="3021"></path></svg>