<?xml version="1.0" standalone="no"?><!DOCTYPE svg PUBLIC "-//W3C//DTD SVG 1.1//EN" "http://www.w3.org/Graphics/SVG/1.1/DTD/svg11.dtd"><svg t="1769757117262" class="icon" viewBox="0 0 1024 1024" version="1.1" xmlns="http://www.w3.org/2000/svg" p-id="4047" xmlns:xlink="http://www.w3.org/1999/xlink" width="128" height="128"><path d="M170.666667 810.666667h22.4a116.693333 116.693333 0 0 0 232.533333 0h236.8A117.034667 117.034667 0 0 0 896 800v-1.109333A84.970667 84.970667 0 0 0 938.666667 725.333333V192a85.333333 85.333333 0 0 0-85.333334-85.333333H384a85.333333 85.333333 0 0 0-85.333333 85.333333v85.333333H166.4L85.333333 452.266667V725.333333a85.333333 85.333333 0 0 0 85.333334 85.333334z m138.666666 42.666666a53.333333 53.333333 0 1 1 53.333334-53.333333 53.333333 53.333333 0 0 1-53.333334 53.333333z m469.333334 0a53.333333 53.333333 0 1 1 53.333333-53.333333 53.333333 53.333333 0 0 1-53.333333 53.333333zM149.333333 469.610667L203.093333 341.333333h127.573334a32 32 0 0 0 32-32V192a21.333333 21.333333 0 0 1 21.333333-21.333333h469.333333a21.333333 21.333333 0 0 1 21.333334 21.333333v533.333333a20.949333 20.949333 0 0 1-1.216 6.016 116.522667 116.522667 0 0 0-198.741334 15.317334H413.290667a116.437333 116.437333 0 0 0-207.914667 0H170.666667a21.333333 21.333333 0 0 1-21.333334-21.333334V469.610667z" fill="#333333" p-id="4048"></path><path d="M416 618.666667h-128a32 32 0 0 1-32-32v-128a32 32 0 0 1 64 0V554.666667h96a32 32 0 0 1 0 64z" fill="#FF9C00" p-id="4049"></path></svg>