<?xml version="1.0" standalone="no"?><!DOCTYPE svg PUBLIC "-//W3C//DTD SVG 1.1//EN" "http://www.w3.org/Graphics/SVG/1.1/DTD/svg11.dtd"><svg t="1769757002326" class="icon" viewBox="0 0 1024 1024" version="1.1" xmlns="http://www.w3.org/2000/svg" p-id="1990" xmlns:xlink="http://www.w3.org/1999/xlink" width="128" height="128"><path d="M307.2 598.17984c0-113.11104 91.68896-204.8 204.8-204.8h389.12v409.6H512c-113.11104 0-204.8-91.68896-204.8-204.8z" fill="#B8F149" p-id="1991"></path><path d="M40.96 689.84832V307.2C40.96 194.08896 132.64896 102.4 245.76 102.4h332.84096a160.21504 160.21504 0 0 1 160.19456 160.19456h-81.92A78.29504 78.29504 0 0 0 578.60096 184.32H245.76a122.88 122.88 0 0 0-122.88 122.88v382.64832a122.88 122.88 0 0 0 122.88 122.88h573.44a81.92 81.92 0 0 0 81.92-81.92V513.2288a81.92 81.92 0 0 0-81.92-81.92H507.74016v-81.92H819.2a163.84 163.84 0 0 1 163.84 163.84v217.57952a163.84 163.84 0 0 1-163.84 163.84H245.76c-113.11104 0-204.8-91.70944-204.8-204.8z" fill="#252525" p-id="1992"></path><path d="M397.02528 604.8768v81.92h-144.7936v-81.92h144.7936z" fill="#252525" p-id="1993"></path></svg>