<svg width="160" height="160" viewBox="0 0 160 160" fill="none" xmlns="http://www.w3.org/2000/svg">
  <rect x="22" y="64" width="116" height="72" rx="24" fill="#F0F4F8"/>
  <path d="M40 74L80 40L120 74" stroke="#4F9B69" stroke-width="12" stroke-linecap="round" stroke-linejoin="round"/>
  <path d="M58 136V92C58 84.268 64.268 78 72 78H88C95.732 78 102 84.268 102 92V136" stroke="#1F2937" stroke-width="12" stroke-linecap="round" stroke-linejoin="round"/>
  <circle cx="58" cy="46" r="10" fill="#4F9B69"/>
  <circle cx="79" cy="26" r="12" fill="#4F9B69"/>
  <circle cx="102" cy="46" r="10" fill="#4F9B69"/>
  <path d="M62 56C62 48.268 70.954 42 80 42C89.046 42 98 48.268 98 56C98 64.732 90.523 72 80 72C69.477 72 62 64.732 62 56Z" fill="#4F9B69"/>
</svg>
