<?xml version="1.0" standalone="no"?><!DOCTYPE svg PUBLIC "-//W3C//DTD SVG 1.1//EN" "http://www.w3.org/Graphics/SVG/1.1/DTD/svg11.dtd"><svg t="1769757393797" class="icon" viewBox="0 0 1024 1024" version="1.1" xmlns="http://www.w3.org/2000/svg" p-id="10223" xmlns:xlink="http://www.w3.org/1999/xlink" width="128" height="128"><path d="M0 0m409.6 0l204.8 0q409.6 0 409.6 409.6l0 204.8q0 409.6-409.6 409.6l-204.8 0q-409.6 0-409.6-409.6l0-204.8q0-409.6 409.6-409.6Z" fill="#FA7301" opacity=".2" p-id="10224"></path><path d="M587.86816 251.58656a129.024 129.024 0 0 1 111.70816 64.512l75.8784 131.42016a129.024 129.024 0 0 1 0 129.024l-75.88864 131.40992a129.024 129.024 0 0 1-111.7184 64.512h-151.69536a129.024 129.024 0 0 1-111.70816-64.512l-75.88864-131.42016a129.024 129.024 0 0 1 0-129.024l75.88864-131.40992a129.024 129.024 0 0 1 111.7184-64.512z m0 51.59936h-151.71584a77.40416 77.40416 0 0 0-67.03104 38.69696l-75.90912 131.46112a77.40416 77.40416 0 0 0 0 77.40416l75.8784 131.40992a77.40416 77.40416 0 0 0 67.03104 38.69696h151.73632a77.40416 77.40416 0 0 0 67.03104-38.69696l75.90912-131.40992a77.40416 77.40416 0 0 0 0-77.40416l-75.88864-131.46112a77.40416 77.40416 0 0 0-67.03104-38.69696z m-71.1168 118.51776a92.03712 92.03712 0 0 1 45.52704 9.9328 72.704 72.704 0 0 1 30.08512 30.09536 91.89376 91.89376 0 0 1 9.94304 45.52704v9.49248a92.03712 92.03712 0 0 1-9.9328 45.52704 72.704 72.704 0 0 1-30.09536 30.08512 91.89376 91.89376 0 0 1-45.52704 9.94304h-9.50272a92.03712 92.03712 0 0 1-45.52704-9.9328 72.704 72.704 0 0 1-30.08512-30.09536 91.89376 91.89376 0 0 1-9.94304-45.52704v-9.49248a92.03712 92.03712 0 0 1 9.9328-45.52704 72.704 72.704 0 0 1 30.09536-30.08512 91.89376 91.89376 0 0 1 45.52704-9.94304z m0 51.59936h-9.50272a42.3936 42.3936 0 0 0-21.18656 3.84 20.992 20.992 0 0 0-8.92928 8.92928 42.35264 42.35264 0 0 0-3.84 21.18656v9.49248a42.3936 42.3936 0 0 0 3.84 21.18656 20.992 20.992 0 0 0 8.92928 8.92928 42.35264 42.35264 0 0 0 21.18656 3.84h9.49248a42.3936 42.3936 0 0 0 21.18656-3.84 20.992 20.992 0 0 0 8.92928-8.92928 42.35264 42.35264 0 0 0 3.84-21.18656v-9.49248a42.3936 42.3936 0 0 0-3.84-21.18656 21.0944 21.0944 0 0 0-8.92928-8.92928 42.35264 42.35264 0 0 0-21.17632-3.79904z" fill="#FA7301" p-id="10225"></path></svg>